<!-- icon666.com - MILLIONS vector ICONS FREE --><svg viewBox="0 0 24 24" xmlns="http://www.w3.org/2000/svg"><g id="battery_charging"><g><path d="m16 5h-8c-1.103 0-2 .897-2 2v13c0 1.103.897 2 2 2h8c1.103 0 2-.897 2-2v-13c0-1.103-.897-2-2-2z" fill="#64b5f6"></path><path d="m11 4h2c.552 0 1-.447 1-1s-.448-1-1-1h-2c-.552 0-1 .447-1 1s.448 1 1 1z" fill="#2196f3"></path><path d="m10 14.5h2.382l-1.276 2.553c-.247.494-.047 1.095.447 1.342.144.071.296.105.446.105.367 0 .72-.202.896-.553l2-4c.155-.31.138-.678-.044-.973s-.504-.474-.851-.474h-2.382l1.276-2.553c.247-.494.047-1.095-.447-1.342-.495-.246-1.095-.047-1.342.447l-2 4c-.155.31-.138.678.044.973s.504.475.851.475z" fill="#bbdefb"></path></g></g></svg>