<!-- icon666.com - MILLIONS vector ICONS FREE --><svg id="Layer_1" viewBox="0 0 512 512" xmlns="http://www.w3.org/2000/svg" xmlns:xlink="http://www.w3.org/1999/xlink" data-name="Layer 1"><linearGradient id="GradientFill_1" gradientUnits="userSpaceOnUse" x1="255.499" x2="255.5" y1="511.835" y2="-.171"><stop offset="0" stop-color="#6c54a3"></stop><stop offset="1" stop-color="#00b1d2"></stop></linearGradient><path d="m255.5-.171c141.379 0 256 114.623 256 256.007s-114.623 256-256.006 256-256-114.623-256-256 114.626-256.007 256.006-256.007zm-66.471 155.571h-32.292l-2.313 12.478h33.884zm167.527 12.478-2.313-12.478h-32.292l.751 12.478zm-27.606 105.266h47.042l-2.283-12.479h-45.509zm-191.65-12.479-2.312 12.479h47.072l.75-12.479zm47.913-40.751.66-11.288h-38.96l-2.1 11.288zm37.669 53.23h65.218l-.72-12.479h-63.746l-.751 12.479zm143.286-53.23-2.068-11.288h-38.995l.661 11.288zm-137.037-52.039h52.748l-.751-12.478h-51.276zm55.151 40.751h-57.582l-.661 11.288h58.906l-.661-11.288zm-166.416-67.126-24.842 134.561a30.562 30.562 0 0 0 9.342 28.053 36.236 36.236 0 0 0 25.143 9.781h107.6v42.373h-52.269a20.376 20.376 0 1 0 0 40.751h145.329a20.376 20.376 0 0 0 0-40.751h-52.3v-42.368h107.631a36.163 36.163 0 0 0 25.113-9.781 30.581 30.581 0 0 0 9.372-28.053l-24.841-134.566c-2.884-15.554-17.393-26.851-34.515-26.851h-206.278c-17.092-.003-31.601 11.294-34.485 26.851z" fill="url(#GradientFill_1)" fill-rule="evenodd"></path></svg>